<svg width="32" height="32" viewBox="0 0 32 32" fill="none" xmlns="http://www.w3.org/2000/svg">
<g clip-path="url(#clip0_90_1695)">
<path d="M29.8546 7.96859C28.4238 5.51737 26.483 3.57657 24.0316 2.14585C21.5799 0.715182 18.9036 0 16.0004 0C13.0976 0 10.4204 0.715182 7.9691 2.14585C5.51765 3.57636 3.57685 5.51714 2.14606 7.96859C0.715182 10.4202 0 13.0974 0 16C0 18.9028 0.715401 21.5796 2.14583 24.0313C3.57657 26.4825 5.51737 28.4233 7.9688 29.8542C10.4204 31.2848 13.0974 32 16.0001 32C18.9029 32 21.5803 31.2848 24.0316 29.8542C26.4828 28.4238 28.4236 26.4825 29.8542 24.0313C31.2848 21.5797 31.9998 18.9026 31.9998 16C32 13.0971 31.2848 10.4198 29.8546 7.96859ZM16.0002 2.33337C19.4444 2.33337 22.4516 3.47223 25.0208 5.74985L24.7605 6.11419C24.6564 6.26028 24.3959 6.54121 23.9794 6.9581C23.5628 7.37461 23.1079 7.77068 22.6149 8.14562C22.1214 8.52068 21.4517 8.9477 20.6043 9.4269C19.757 9.9061 18.8542 10.3265 17.8958 10.6875C16.2987 7.74281 14.5905 5.09004 12.771 2.72908C13.8684 2.46523 14.9447 2.33337 16.0002 2.33337ZM5.29211 7.52034C6.62535 5.84011 8.2501 4.54825 10.167 3.6456C11.8891 5.93724 13.5834 8.56242 15.2502 11.5206C11.028 12.6318 6.8198 13.1874 2.62533 13.1871C3.07001 11.09 3.95886 9.20091 5.29211 7.52034ZM3.2501 20.9275C2.6389 19.365 2.33337 17.7224 2.33337 16C2.33337 15.8055 2.34053 15.6596 2.35424 15.5625C7.38228 15.5625 12.056 14.9168 16.3754 13.6249C16.82 14.4859 17.188 15.2568 17.4797 15.9375C17.4234 15.9653 17.3338 15.9964 17.2087 16.0312C17.0833 16.0659 16.9933 16.09 16.9372 16.1041L16.1666 16.3748C15.6386 16.5694 14.9474 16.9028 14.0936 17.3748C13.2395 17.8475 12.3333 18.4096 11.3749 19.0626C10.4165 19.7156 9.4269 20.5801 8.40619 21.6569C7.38533 22.7332 6.52772 23.8891 5.83324 25.1252C4.72213 23.8891 3.86116 22.4894 3.2501 20.9275ZM16.0002 29.6668C12.7501 29.6668 9.84736 28.6251 7.29172 26.5419L7.60425 26.7712C8.09029 25.7013 8.80548 24.6736 9.75015 23.6876C10.6947 22.7017 11.6043 21.9063 12.4793 21.3019C13.3543 20.6981 14.3056 20.1287 15.3336 19.5934C16.3613 19.059 17.0623 18.7184 17.4377 18.573C17.8128 18.4272 18.1115 18.3124 18.3335 18.2288L18.3751 18.208H18.4171C19.7776 21.7774 20.7504 25.2359 21.3335 28.5831C19.6112 29.3058 17.8338 29.6667 16.0002 29.6668ZM27.5008 23.3854C26.4729 24.976 25.1879 26.2923 23.6468 27.3335C23.0768 24.1392 22.1884 20.8818 20.9797 17.5626C23.7436 17.1316 26.5838 17.3333 29.5006 18.1664C29.1948 20.0553 28.5282 21.7954 27.5008 23.3854ZM29.4585 15.8125C29.3196 15.785 29.146 15.7534 28.9376 15.7189C28.7294 15.6844 28.4757 15.6425 28.1771 15.5939C27.8788 15.5453 27.5449 15.5003 27.1772 15.4586C26.8091 15.4169 26.4167 15.3788 25.9996 15.3441C25.5831 15.3092 25.1387 15.2817 24.6667 15.2607C24.194 15.2399 23.715 15.2294 23.2288 15.2294C22.7431 15.2294 22.2322 15.2435 21.6978 15.2711C21.1632 15.2985 20.646 15.3476 20.1461 15.417C20.1042 15.3474 20.0523 15.2328 19.9897 15.073C19.9273 14.9134 19.8818 14.7917 19.8549 14.7084C19.5906 14.125 19.285 13.4652 18.9374 12.7293C19.8958 12.3402 20.8092 11.8924 21.6779 11.3854C22.5456 10.8783 23.2395 10.4272 23.7607 10.0314C24.2816 9.63516 24.7746 9.21499 25.2398 8.77068C25.7052 8.32629 26.0069 8.0174 26.1463 7.84373C26.2853 7.66978 26.4172 7.49975 26.542 7.3333L26.563 7.31228C28.5908 9.78453 29.626 12.6316 29.667 15.8541L29.4585 15.8125Z" fill="white"/>
</g>
<defs>
<clipPath id="clip0_90_1695">
<rect width="32" height="32" fill="white"/>
</clipPath>
</defs>
</svg>
